TITLE ""
FILE "Disc3Track22.mp3" MP3
  TRACK 01 AUDIO
    TITLE "Disc3Track22_01"
    INDEX 01 00:00:00
  TRACK 02 AUDIO
    TITLE "Disc3Track22_02"
    INDEX 01 00:01:04
  TRACK 03 AUDIO
    TITLE "Disc3Track22_03"
    INDEX 01 00:05:74
  TRACK 04 AUDIO
    TITLE "Disc3Track22_04"
    INDEX 01 00:07:16
  TRACK 05 AUDIO
    TITLE "Disc3Track22_05"
    INDEX 01 00:12:23
  TRACK 06 AUDIO
    TITLE "Disc3Track22_06"
    INDEX 01 00:12:57
  TRACK 07 AUDIO
    TITLE "Disc3Track22_07"
    INDEX 01 00:13:68
  TRACK 08 AUDIO
    TITLE "Disc3Track22_08"
    INDEX 01 00:15:59
  TRACK 09 AUDIO
    TITLE "Disc3Track22_09"
    INDEX 01 00:16:72
  TRACK 10 AUDIO
    TITLE "Disc3Track22_10"
    INDEX 01 00:19:72
  TRACK 11 AUDIO
    TITLE "Disc3Track22_11"
    INDEX 01 00:20:31
  TRACK 12 AUDIO
    TITLE "Disc3Track22_12"
    INDEX 01 00:21:50
  TRACK 13 AUDIO
    TITLE "Disc3Track22_13"
    INDEX 01 00:23:64
  TRACK 14 AUDIO
    TITLE "Disc3Track22_14"
    INDEX 01 00:25:06
  TRACK 15 AUDIO
    TITLE "Disc3Track22_15"
    INDEX 01 00:26:66
  TRACK 16 AUDIO
    TITLE "Disc3Track22_16"
    INDEX 01 00:27:23
  TRACK 17 AUDIO
    TITLE "Disc3Track22_17"
    INDEX 01 00:28:52
  TRACK 18 AUDIO
    TITLE "Disc3Track22_18"
    INDEX 01 00:31:42
  TRACK 19 AUDIO
    TITLE "Disc3Track22_19"
    INDEX 01 00:32:69
  TRACK 20 AUDIO
    TITLE "Disc3Track22_20"
    INDEX 01 00:35:22
  TRACK 21 AUDIO
    TITLE "Disc3Track22_21"
    INDEX 01 00:35:54
  TRACK 22 AUDIO
    TITLE "Disc3Track22_22"
    INDEX 01 00:37:08
  TRACK 23 AUDIO
    TITLE "Disc3Track22_23"
    INDEX 01 00:38:74
  TRACK 24 AUDIO
    TITLE "Disc3Track22_24"
    INDEX 01 00:40:27
  TRACK 25 AUDIO
    TITLE "Disc3Track22_25"
    INDEX 01 00:42:15
  TRACK 26 AUDIO
    TITLE "Disc3Track22_26"
    INDEX 01 00:42:46
  TRACK 27 AUDIO
    TITLE "Disc3Track22_27"
    INDEX 01 00:43:75
  TRACK 28 AUDIO
    TITLE "Disc3Track22_28"
    INDEX 01 00:46:26
  TRACK 29 AUDIO
    TITLE "Disc3Track22_29"
    INDEX 01 00:47:53
  TRACK 30 AUDIO
    TITLE "Disc3Track22_30"
    INDEX 01 00:49:52
  TRACK 31 AUDIO
    TITLE "Disc3Track22_31"
    INDEX 01 00:50:08
  TRACK 32 AUDIO
    TITLE "Disc3Track22_32"
    INDEX 01 00:51:41
  TRACK 33 AUDIO
    TITLE "Disc3Track22_33"
    INDEX 01 00:53:75
  TRACK 34 AUDIO
    TITLE "Disc3Track22_34"
    INDEX 01 00:55:29
  TRACK 35 AUDIO
    TITLE "Disc3Track22_35"
    INDEX 01 00:57:40
  TRACK 36 AUDIO
    TITLE "Disc3Track22_36"
    INDEX 01 00:57:71
  TRACK 37 AUDIO
    TITLE "Disc3Track22_37"
    INDEX 01 00:59:33
  TRACK 38 AUDIO
    TITLE "Disc3Track22_38"
    INDEX 01 01:01:20
  TRACK 39 AUDIO
    TITLE "Disc3Track22_39"
    INDEX 01 01:02:54
  TRACK 40 AUDIO
    TITLE "Disc3Track22_40"
    INDEX 01 01:04:48
  TRACK 41 AUDIO
    TITLE "Disc3Track22_41"
    INDEX 01 01:04:75
  TRACK 42 AUDIO
    TITLE "Disc3Track22_42"
    INDEX 01 01:06:37
  TRACK 43 AUDIO
    TITLE "Disc3Track22_43"
    INDEX 01 01:07:73
  TRACK 44 AUDIO
    TITLE "Disc3Track22_44"
    INDEX 01 01:09:35
  TRACK 45 AUDIO
    TITLE "Disc3Track22_45"
    INDEX 01 01:09:66
  TRACK 46 AUDIO
    TITLE "Disc3Track22_46"
    INDEX 01 01:11:20
  TRACK 47 AUDIO
    TITLE "Disc3Track22_47"
    INDEX 01 01:13:45
  TRACK 48 AUDIO
    TITLE "Disc3Track22_48"
    INDEX 01 01:14:71
  TRACK 49 AUDIO
    TITLE "Disc3Track22_49"
    INDEX 01 01:18:16
  TRACK 50 AUDIO
    TITLE "Disc3Track22_50"
    INDEX 01 01:18:50
  TRACK 51 AUDIO
    TITLE "Disc3Track22_51"
    INDEX 01 01:20:01
  TRACK 52 AUDIO
    TITLE "Disc3Track22_52"
    INDEX 01 01:22:02
  TRACK 53 AUDIO
    TITLE "Disc3Track22_53"
    INDEX 01 01:23:31
  TRACK 54 AUDIO
    TITLE "Disc3Track22_54"
    INDEX 01 01:23:72
  TRACK 55 AUDIO
    TITLE "Disc3Track22_55"
    INDEX 01 01:25:24
  TRACK 56 AUDIO
    TITLE "Disc3Track22_56"
    INDEX 01 01:27:47
  TRACK 57 AUDIO
    TITLE "Disc3Track22_57"
    INDEX 01 01:28:73
  TRACK 58 AUDIO
    TITLE "Disc3Track22_58"
    INDEX 01 01:30:74
  TRACK 59 AUDIO
    TITLE "Disc3Track22_59"
    INDEX 01 01:31:31
  TRACK 60 AUDIO
    TITLE "Disc3Track22_60"
    INDEX 01 01:32:63
  TRACK 61 AUDIO
    TITLE "Disc3Track22_61"
    INDEX 01 01:35:09
  TRACK 62 AUDIO
    TITLE "Disc3Track22_62"
    INDEX 01 01:36:42
  TRACK 63 AUDIO
    TITLE "Disc3Track22_63"
    INDEX 01 01:40:73
